<mxfile host="Electron" modified="2023-05-04T20:34:55.586Z" agent="Mozilla/5.0 (Windows NT 10.0; Win64; x64) AppleWebKit/537.36 (KHTML, like Gecko) draw.io/21.2.1 Chrome/112.0.5615.87 Electron/24.1.2 Safari/537.36" etag="diGR8lpEQuv_9ynK_FQT" version="21.2.1" type="device">
  <diagram id="C5RBs43oDa-KdzZeNtuy" name="Page-1">
    <mxGraphModel dx="1195" dy="703" grid="1" gridSize="10" guides="1" tooltips="1" connect="1" arrows="1" fold="1" page="1" pageScale="1" pageWidth="827" pageHeight="1169" math="0" shadow="0">
      <root>
        <mxCell id="WIyWlLk6GJQsqaUBKTNV-0" />
        <mxCell id="WIyWlLk6GJQsqaUBKTNV-1" parent="WIyWlLk6GJQsqaUBKTNV-0" />
        <mxCell id="0CVLnJ3uzTkB0svSnbMB-0" value="Client" style="html=1;whiteSpace=wrap;" vertex="1" parent="WIyWlLk6GJQsqaUBKTNV-1">
          <mxGeometry x="120" y="120" width="120" height="40" as="geometry" />
        </mxCell>
        <mxCell id="0CVLnJ3uzTkB0svSnbMB-1" value="&lt;p style=&quot;margin:0px;margin-top:4px;text-align:center;&quot;&gt;&lt;i&gt;&amp;lt;&amp;lt;Interface&amp;gt;&amp;gt;&lt;/i&gt;&lt;br&gt;&lt;b&gt;Prototype&lt;/b&gt;&lt;br&gt;&lt;/p&gt;&lt;hr size=&quot;1&quot;&gt;&lt;p style=&quot;margin:0px;margin-left:4px;&quot;&gt;&lt;/p&gt;&lt;p style=&quot;margin:0px;margin-left:4px;&quot;&gt;+ clone(): Prototype&lt;br&gt;&lt;br&gt;&lt;/p&gt;" style="verticalAlign=top;align=left;overflow=fill;fontSize=12;fontFamily=Helvetica;html=1;whiteSpace=wrap;" vertex="1" parent="WIyWlLk6GJQsqaUBKTNV-1">
          <mxGeometry x="319" y="95" width="190" height="90" as="geometry" />
        </mxCell>
        <mxCell id="0CVLnJ3uzTkB0svSnbMB-2" value="ConcretePrototype" style="swimlane;fontStyle=1;align=center;verticalAlign=top;childLayout=stackLayout;horizontal=1;startSize=26;horizontalStack=0;resizeParent=1;resizeParentMax=0;resizeLast=0;collapsible=1;marginBottom=0;whiteSpace=wrap;html=1;" vertex="1" parent="WIyWlLk6GJQsqaUBKTNV-1">
          <mxGeometry x="319" y="240" width="191" height="170" as="geometry" />
        </mxCell>
        <mxCell id="0CVLnJ3uzTkB0svSnbMB-3" value="- field1&lt;br&gt;- field2&lt;br&gt;- field3&lt;br&gt;..." style="text;strokeColor=none;fillColor=none;align=left;verticalAlign=top;spacingLeft=4;spacingRight=4;overflow=hidden;rotatable=0;points=[[0,0.5],[1,0.5]];portConstraint=eastwest;whiteSpace=wrap;html=1;" vertex="1" parent="0CVLnJ3uzTkB0svSnbMB-2">
          <mxGeometry y="26" width="191" height="74" as="geometry" />
        </mxCell>
        <mxCell id="0CVLnJ3uzTkB0svSnbMB-4" value="" style="line;strokeWidth=1;fillColor=none;align=left;verticalAlign=middle;spacingTop=-1;spacingLeft=3;spacingRight=3;rotatable=0;labelPosition=right;points=[];portConstraint=eastwest;strokeColor=inherit;" vertex="1" parent="0CVLnJ3uzTkB0svSnbMB-2">
          <mxGeometry y="100" width="191" height="8" as="geometry" />
        </mxCell>
        <mxCell id="0CVLnJ3uzTkB0svSnbMB-5" value="+ ConcretePrototype()&lt;br&gt;- ConcretePrototype(prototype)&lt;br&gt;+ clone(): Prototype" style="text;strokeColor=none;fillColor=none;align=left;verticalAlign=top;spacingLeft=4;spacingRight=4;overflow=hidden;rotatable=0;points=[[0,0.5],[1,0.5]];portConstraint=eastwest;whiteSpace=wrap;html=1;" vertex="1" parent="0CVLnJ3uzTkB0svSnbMB-2">
          <mxGeometry y="108" width="191" height="62" as="geometry" />
        </mxCell>
        <mxCell id="0CVLnJ3uzTkB0svSnbMB-6" value="" style="endArrow=block;dashed=1;endFill=0;endSize=12;html=1;rounded=0;" edge="1" parent="WIyWlLk6GJQsqaUBKTNV-1" source="0CVLnJ3uzTkB0svSnbMB-2" target="0CVLnJ3uzTkB0svSnbMB-1">
          <mxGeometry width="160" relative="1" as="geometry">
            <mxPoint x="340" y="230" as="sourcePoint" />
            <mxPoint x="500" y="230" as="targetPoint" />
          </mxGeometry>
        </mxCell>
        <mxCell id="0CVLnJ3uzTkB0svSnbMB-7" value="" style="endArrow=open;endFill=1;endSize=12;html=1;rounded=0;" edge="1" parent="WIyWlLk6GJQsqaUBKTNV-1" source="0CVLnJ3uzTkB0svSnbMB-0" target="0CVLnJ3uzTkB0svSnbMB-1">
          <mxGeometry width="160" relative="1" as="geometry">
            <mxPoint x="340" y="230" as="sourcePoint" />
            <mxPoint x="500" y="230" as="targetPoint" />
          </mxGeometry>
        </mxCell>
        <mxCell id="0CVLnJ3uzTkB0svSnbMB-8" value="&amp;nbsp;Prototype clone() {&lt;br&gt;&amp;nbsp; &amp;nbsp; return new ConcretePrototype(this);&lt;br&gt;&amp;nbsp;}" style="shape=note;whiteSpace=wrap;html=1;backgroundOutline=1;darkOpacity=0.05;size=12;align=left;verticalAlign=middle;" vertex="1" parent="WIyWlLk6GJQsqaUBKTNV-1">
          <mxGeometry x="550" y="420" width="230" height="70" as="geometry" />
        </mxCell>
        <mxCell id="0CVLnJ3uzTkB0svSnbMB-9" value="" style="endArrow=none;dashed=1;html=1;rounded=0;" edge="1" parent="WIyWlLk6GJQsqaUBKTNV-1" target="0CVLnJ3uzTkB0svSnbMB-8">
          <mxGeometry width="50" height="50" relative="1" as="geometry">
            <mxPoint x="435" y="392" as="sourcePoint" />
            <mxPoint x="450" y="210" as="targetPoint" />
          </mxGeometry>
        </mxCell>
        <mxCell id="0CVLnJ3uzTkB0svSnbMB-10" value="&lt;div&gt;&amp;nbsp;ConcretePrototype(prototype) {&lt;/div&gt;&lt;div&gt;&amp;nbsp; &amp;nbsp; this.field1 = prototype.field1;&lt;/div&gt;&lt;div&gt;&lt;span style=&quot;&quot;&gt;&lt;/span&gt;&amp;nbsp; &amp;nbsp; this.field2 = prototype.field2;&lt;/div&gt;&lt;div&gt;&lt;span style=&quot;&quot;&gt;&lt;/span&gt;&amp;nbsp; &amp;nbsp; this.field3 = prototype.field3;&lt;/div&gt;&lt;div&gt;&lt;span style=&quot;&quot;&gt;&lt;/span&gt;&amp;nbsp; &amp;nbsp; ...&lt;/div&gt;&lt;div&gt;&amp;nbsp;}&lt;/div&gt;" style="shape=note;whiteSpace=wrap;html=1;backgroundOutline=1;darkOpacity=0.05;size=12;align=left;verticalAlign=middle;" vertex="1" parent="WIyWlLk6GJQsqaUBKTNV-1">
          <mxGeometry x="560" y="210" width="230" height="110" as="geometry" />
        </mxCell>
        <mxCell id="0CVLnJ3uzTkB0svSnbMB-11" value="" style="endArrow=none;dashed=1;html=1;rounded=0;" edge="1" parent="WIyWlLk6GJQsqaUBKTNV-1" target="0CVLnJ3uzTkB0svSnbMB-10">
          <mxGeometry width="50" height="50" relative="1" as="geometry">
            <mxPoint x="494" y="376" as="sourcePoint" />
            <mxPoint x="560" y="432" as="targetPoint" />
          </mxGeometry>
        </mxCell>
        <mxCell id="0CVLnJ3uzTkB0svSnbMB-12" value="cloned = object.clone();" style="shape=note;whiteSpace=wrap;html=1;backgroundOutline=1;darkOpacity=0.05;size=12;align=left;verticalAlign=middle;" vertex="1" parent="WIyWlLk6GJQsqaUBKTNV-1">
          <mxGeometry x="80" y="200" width="150" height="50" as="geometry" />
        </mxCell>
        <mxCell id="0CVLnJ3uzTkB0svSnbMB-13" value="" style="endArrow=none;dashed=1;html=1;rounded=0;" edge="1" parent="WIyWlLk6GJQsqaUBKTNV-1" source="0CVLnJ3uzTkB0svSnbMB-0" target="0CVLnJ3uzTkB0svSnbMB-12">
          <mxGeometry width="50" height="50" relative="1" as="geometry">
            <mxPoint x="504" y="386" as="sourcePoint" />
            <mxPoint x="595" y="330" as="targetPoint" />
          </mxGeometry>
        </mxCell>
      </root>
    </mxGraphModel>
  </diagram>
</mxfile>
